<mxfile host="Electron" modified="2023-10-18T22:17:19.917Z" agent="Mozilla/5.0 (Windows NT 10.0; Win64; x64) AppleWebKit/537.36 (KHTML, like Gecko) draw.io/22.0.3 Chrome/114.0.5735.289 Electron/25.8.4 Safari/537.36" etag="ZHbuXfGG3SojGxYgeEOD" version="22.0.3" type="device">
  <diagram id="C5RBs43oDa-KdzZeNtuy" name="Page-1">
    <mxGraphModel dx="785" dy="827" grid="1" gridSize="10" guides="1" tooltips="1" connect="1" arrows="1" fold="1" page="1" pageScale="1" pageWidth="827" pageHeight="1169" math="0" shadow="0">
      <root>
        <mxCell id="WIyWlLk6GJQsqaUBKTNV-0" />
        <mxCell id="WIyWlLk6GJQsqaUBKTNV-1" parent="WIyWlLk6GJQsqaUBKTNV-0" />
        <mxCell id="gFW3YUw3t3Eu43AXeSie-1" value="" style="edgeStyle=orthogonalEdgeStyle;rounded=0;orthogonalLoop=1;jettySize=auto;html=1;" parent="WIyWlLk6GJQsqaUBKTNV-1" source="uvkjri6FY9MWjZu6di9B-1" target="gFW3YUw3t3Eu43AXeSie-0" edge="1">
          <mxGeometry relative="1" as="geometry" />
        </mxCell>
        <mxCell id="uvkjri6FY9MWjZu6di9B-1" value="" style="strokeWidth=2;html=1;shape=mxgraph.flowchart.start_2;whiteSpace=wrap;" parent="WIyWlLk6GJQsqaUBKTNV-1" vertex="1">
          <mxGeometry x="120" y="20" width="30" height="30" as="geometry" />
        </mxCell>
        <mxCell id="uvkjri6FY9MWjZu6di9B-25" style="edgeStyle=orthogonalEdgeStyle;rounded=0;orthogonalLoop=1;jettySize=auto;html=1;" parent="WIyWlLk6GJQsqaUBKTNV-1" edge="1">
          <mxGeometry relative="1" as="geometry" />
        </mxCell>
        <mxCell id="vmr1aMFzi46B_T9mpgOL-172" style="edgeStyle=orthogonalEdgeStyle;rounded=0;orthogonalLoop=1;jettySize=auto;html=1;exitX=0.5;exitY=1;exitDx=0;exitDy=0;entryX=0.5;entryY=0;entryDx=0;entryDy=0;" edge="1" parent="WIyWlLk6GJQsqaUBKTNV-1" source="gFW3YUw3t3Eu43AXeSie-0" target="vmr1aMFzi46B_T9mpgOL-121">
          <mxGeometry relative="1" as="geometry" />
        </mxCell>
        <mxCell id="gFW3YUw3t3Eu43AXeSie-0" value="&amp;nbsp;&amp;nbsp;inteiro i, j, num, i_, j_&lt;div&gt;&amp;nbsp; &amp;nbsp; &amp;nbsp; &amp;nbsp; inteiro sequencia1 [50]&lt;/div&gt;&lt;div&gt;&amp;nbsp; &amp;nbsp; &amp;nbsp; &amp;nbsp; logico matchingElements = falso&lt;/div&gt;" style="whiteSpace=wrap;html=1;strokeWidth=2;" parent="WIyWlLk6GJQsqaUBKTNV-1" vertex="1">
          <mxGeometry x="30" y="80" width="210" height="70" as="geometry" />
        </mxCell>
        <mxCell id="vmr1aMFzi46B_T9mpgOL-120" value="" style="edgeStyle=orthogonalEdgeStyle;rounded=0;orthogonalLoop=1;jettySize=auto;html=1;" edge="1" parent="WIyWlLk6GJQsqaUBKTNV-1" source="vmr1aMFzi46B_T9mpgOL-121" target="vmr1aMFzi46B_T9mpgOL-123">
          <mxGeometry relative="1" as="geometry" />
        </mxCell>
        <mxCell id="vmr1aMFzi46B_T9mpgOL-121" value="" style="shape=hexagon;perimeter=hexagonPerimeter2;whiteSpace=wrap;html=1;fixedSize=1;" vertex="1" parent="WIyWlLk6GJQsqaUBKTNV-1">
          <mxGeometry x="59.97000000000003" y="208" width="145" height="80" as="geometry" />
        </mxCell>
        <mxCell id="vmr1aMFzi46B_T9mpgOL-122" style="edgeStyle=orthogonalEdgeStyle;rounded=0;orthogonalLoop=1;jettySize=auto;html=1;" edge="1" parent="WIyWlLk6GJQsqaUBKTNV-1" source="vmr1aMFzi46B_T9mpgOL-123" target="vmr1aMFzi46B_T9mpgOL-125">
          <mxGeometry relative="1" as="geometry" />
        </mxCell>
        <mxCell id="vmr1aMFzi46B_T9mpgOL-123" value="Insira mais um num." style="shape=document;whiteSpace=wrap;html=1;boundedLbl=1;" vertex="1" parent="WIyWlLk6GJQsqaUBKTNV-1">
          <mxGeometry x="71.97000000000003" y="322" width="120" height="50" as="geometry" />
        </mxCell>
        <mxCell id="vmr1aMFzi46B_T9mpgOL-124" value="" style="edgeStyle=orthogonalEdgeStyle;rounded=0;orthogonalLoop=1;jettySize=auto;html=1;" edge="1" parent="WIyWlLk6GJQsqaUBKTNV-1" source="vmr1aMFzi46B_T9mpgOL-125" target="vmr1aMFzi46B_T9mpgOL-127">
          <mxGeometry relative="1" as="geometry" />
        </mxCell>
        <mxCell id="vmr1aMFzi46B_T9mpgOL-125" value="sequencia [idx]" style="html=1;strokeWidth=2;shape=manualInput;whiteSpace=wrap;rounded=1;size=26;arcSize=11;" vertex="1" parent="WIyWlLk6GJQsqaUBKTNV-1">
          <mxGeometry x="82.47000000000003" y="410" width="100" height="60" as="geometry" />
        </mxCell>
        <mxCell id="vmr1aMFzi46B_T9mpgOL-126" style="edgeStyle=orthogonalEdgeStyle;rounded=0;orthogonalLoop=1;jettySize=auto;html=1;entryX=0;entryY=0.5;entryDx=0;entryDy=0;" edge="1" parent="WIyWlLk6GJQsqaUBKTNV-1" source="vmr1aMFzi46B_T9mpgOL-127" target="vmr1aMFzi46B_T9mpgOL-121">
          <mxGeometry relative="1" as="geometry">
            <Array as="points">
              <mxPoint x="39.97" y="522" />
              <mxPoint x="39.97" y="248" />
            </Array>
          </mxGeometry>
        </mxCell>
        <mxCell id="vmr1aMFzi46B_T9mpgOL-127" value="" style="ellipse;whiteSpace=wrap;html=1;strokeWidth=2;rounded=1;arcSize=11;" vertex="1" parent="WIyWlLk6GJQsqaUBKTNV-1">
          <mxGeometry x="109.72000000000003" y="502" width="44.5" height="40" as="geometry" />
        </mxCell>
        <mxCell id="vmr1aMFzi46B_T9mpgOL-202" style="edgeStyle=orthogonalEdgeStyle;rounded=0;orthogonalLoop=1;jettySize=auto;html=1;" edge="1" parent="WIyWlLk6GJQsqaUBKTNV-1" source="vmr1aMFzi46B_T9mpgOL-129">
          <mxGeometry relative="1" as="geometry">
            <mxPoint x="300" y="240" as="targetPoint" />
          </mxGeometry>
        </mxCell>
        <mxCell id="vmr1aMFzi46B_T9mpgOL-129" value="idx = 0; idx &lt;= 49; idx++" style="text;whiteSpace=wrap;" vertex="1" parent="WIyWlLk6GJQsqaUBKTNV-1">
          <mxGeometry x="71.97000000000003" y="230" width="150" height="40" as="geometry" />
        </mxCell>
        <mxCell id="vmr1aMFzi46B_T9mpgOL-184" style="edgeStyle=orthogonalEdgeStyle;rounded=0;orthogonalLoop=1;jettySize=auto;html=1;exitX=0.5;exitY=1;exitDx=0;exitDy=0;entryX=0.5;entryY=0;entryDx=0;entryDy=0;" edge="1" parent="WIyWlLk6GJQsqaUBKTNV-1" source="vmr1aMFzi46B_T9mpgOL-174" target="vmr1aMFzi46B_T9mpgOL-182">
          <mxGeometry relative="1" as="geometry" />
        </mxCell>
        <mxCell id="vmr1aMFzi46B_T9mpgOL-174" value="" style="shape=hexagon;perimeter=hexagonPerimeter2;whiteSpace=wrap;html=1;fixedSize=1;" vertex="1" parent="WIyWlLk6GJQsqaUBKTNV-1">
          <mxGeometry x="299.97" y="200" width="145" height="80" as="geometry" />
        </mxCell>
        <mxCell id="vmr1aMFzi46B_T9mpgOL-179" style="edgeStyle=orthogonalEdgeStyle;rounded=0;orthogonalLoop=1;jettySize=auto;html=1;entryX=0;entryY=0.5;entryDx=0;entryDy=0;" edge="1" parent="WIyWlLk6GJQsqaUBKTNV-1" source="vmr1aMFzi46B_T9mpgOL-180" target="vmr1aMFzi46B_T9mpgOL-174">
          <mxGeometry relative="1" as="geometry">
            <Array as="points">
              <mxPoint x="279.97" y="514" />
              <mxPoint x="279.97" y="240" />
            </Array>
          </mxGeometry>
        </mxCell>
        <mxCell id="vmr1aMFzi46B_T9mpgOL-180" value="" style="ellipse;whiteSpace=wrap;html=1;strokeWidth=2;rounded=1;arcSize=11;" vertex="1" parent="WIyWlLk6GJQsqaUBKTNV-1">
          <mxGeometry x="204.97" y="640" width="44.5" height="40" as="geometry" />
        </mxCell>
        <mxCell id="vmr1aMFzi46B_T9mpgOL-199" style="edgeStyle=orthogonalEdgeStyle;rounded=0;orthogonalLoop=1;jettySize=auto;html=1;exitX=1;exitY=0.5;exitDx=0;exitDy=0;entryX=0.5;entryY=0;entryDx=0;entryDy=0;" edge="1" parent="WIyWlLk6GJQsqaUBKTNV-1" source="vmr1aMFzi46B_T9mpgOL-181" target="vmr1aMFzi46B_T9mpgOL-194">
          <mxGeometry relative="1" as="geometry" />
        </mxCell>
        <mxCell id="vmr1aMFzi46B_T9mpgOL-181" value="i = 0; i &lt;= 49; i++" style="text;whiteSpace=wrap;" vertex="1" parent="WIyWlLk6GJQsqaUBKTNV-1">
          <mxGeometry x="315" y="220" width="150" height="40" as="geometry" />
        </mxCell>
        <mxCell id="vmr1aMFzi46B_T9mpgOL-188" value="" style="edgeStyle=orthogonalEdgeStyle;rounded=0;orthogonalLoop=1;jettySize=auto;html=1;" edge="1" parent="WIyWlLk6GJQsqaUBKTNV-1" source="vmr1aMFzi46B_T9mpgOL-182" target="vmr1aMFzi46B_T9mpgOL-187">
          <mxGeometry relative="1" as="geometry" />
        </mxCell>
        <mxCell id="vmr1aMFzi46B_T9mpgOL-182" value="" style="shape=hexagon;perimeter=hexagonPerimeter2;whiteSpace=wrap;html=1;fixedSize=1;" vertex="1" parent="WIyWlLk6GJQsqaUBKTNV-1">
          <mxGeometry x="320" y="310" width="145" height="80" as="geometry" />
        </mxCell>
        <mxCell id="vmr1aMFzi46B_T9mpgOL-183" value="j= i; j &lt;= 49; j++" style="text;whiteSpace=wrap;" vertex="1" parent="WIyWlLk6GJQsqaUBKTNV-1">
          <mxGeometry x="360" y="332" width="150" height="40" as="geometry" />
        </mxCell>
        <mxCell id="vmr1aMFzi46B_T9mpgOL-190" value="" style="edgeStyle=orthogonalEdgeStyle;rounded=0;orthogonalLoop=1;jettySize=auto;html=1;" edge="1" parent="WIyWlLk6GJQsqaUBKTNV-1" source="vmr1aMFzi46B_T9mpgOL-187" target="vmr1aMFzi46B_T9mpgOL-189">
          <mxGeometry relative="1" as="geometry" />
        </mxCell>
        <mxCell id="vmr1aMFzi46B_T9mpgOL-187" value="seq[i] = &lt;br&gt;seq[j]" style="rhombus;whiteSpace=wrap;html=1;" vertex="1" parent="WIyWlLk6GJQsqaUBKTNV-1">
          <mxGeometry x="352.5" y="430" width="80" height="80" as="geometry" />
        </mxCell>
        <mxCell id="vmr1aMFzi46B_T9mpgOL-192" value="" style="edgeStyle=orthogonalEdgeStyle;rounded=0;orthogonalLoop=1;jettySize=auto;html=1;" edge="1" parent="WIyWlLk6GJQsqaUBKTNV-1" source="vmr1aMFzi46B_T9mpgOL-189" target="vmr1aMFzi46B_T9mpgOL-191">
          <mxGeometry relative="1" as="geometry" />
        </mxCell>
        <mxCell id="vmr1aMFzi46B_T9mpgOL-189" value="matchingElements = verdadeiro" style="whiteSpace=wrap;html=1;" vertex="1" parent="WIyWlLk6GJQsqaUBKTNV-1">
          <mxGeometry x="312.5" y="555" width="120" height="60" as="geometry" />
        </mxCell>
        <mxCell id="vmr1aMFzi46B_T9mpgOL-198" style="edgeStyle=orthogonalEdgeStyle;rounded=0;orthogonalLoop=1;jettySize=auto;html=1;entryX=0.5;entryY=1;entryDx=0;entryDy=0;" edge="1" parent="WIyWlLk6GJQsqaUBKTNV-1" source="vmr1aMFzi46B_T9mpgOL-191" target="vmr1aMFzi46B_T9mpgOL-180">
          <mxGeometry relative="1" as="geometry" />
        </mxCell>
        <mxCell id="vmr1aMFzi46B_T9mpgOL-191" value="&quot;Elementos coincidem&quot; seq[i] =&lt;br&gt;seq[j]" style="shape=document;whiteSpace=wrap;html=1;boundedLbl=1;" vertex="1" parent="WIyWlLk6GJQsqaUBKTNV-1">
          <mxGeometry x="312.5" y="700" width="120" height="80" as="geometry" />
        </mxCell>
        <mxCell id="vmr1aMFzi46B_T9mpgOL-197" value="" style="edgeStyle=orthogonalEdgeStyle;rounded=0;orthogonalLoop=1;jettySize=auto;html=1;" edge="1" parent="WIyWlLk6GJQsqaUBKTNV-1" source="vmr1aMFzi46B_T9mpgOL-194" target="vmr1aMFzi46B_T9mpgOL-196">
          <mxGeometry relative="1" as="geometry" />
        </mxCell>
        <mxCell id="vmr1aMFzi46B_T9mpgOL-194" value="not&lt;br&gt;matchingElements" style="rhombus;whiteSpace=wrap;html=1;" vertex="1" parent="WIyWlLk6GJQsqaUBKTNV-1">
          <mxGeometry x="493.75" y="415" width="132.5" height="110" as="geometry" />
        </mxCell>
        <mxCell id="vmr1aMFzi46B_T9mpgOL-196" value="&quot;Não há elementos que coincidem.&quot;" style="shape=document;whiteSpace=wrap;html=1;boundedLbl=1;" vertex="1" parent="WIyWlLk6GJQsqaUBKTNV-1">
          <mxGeometry x="500" y="590" width="120" height="80" as="geometry" />
        </mxCell>
        <mxCell id="vmr1aMFzi46B_T9mpgOL-200" value="" style="strokeWidth=2;html=1;shape=mxgraph.flowchart.terminator;whiteSpace=wrap;" vertex="1" parent="WIyWlLk6GJQsqaUBKTNV-1">
          <mxGeometry x="510" y="770" width="100" height="60" as="geometry" />
        </mxCell>
        <mxCell id="vmr1aMFzi46B_T9mpgOL-201" style="edgeStyle=orthogonalEdgeStyle;rounded=0;orthogonalLoop=1;jettySize=auto;html=1;entryX=0.5;entryY=0;entryDx=0;entryDy=0;entryPerimeter=0;" edge="1" parent="WIyWlLk6GJQsqaUBKTNV-1" source="vmr1aMFzi46B_T9mpgOL-196" target="vmr1aMFzi46B_T9mpgOL-200">
          <mxGeometry relative="1" as="geometry" />
        </mxCell>
      </root>
    </mxGraphModel>
  </diagram>
</mxfile>
